<svg height="256.86452" viewBox="0 0 27.240786 18.058294" width="389.310288" xmlns="http://www.w3.org/2000/svg"><g transform="matrix(.05804492 0 0 .05804492 -3.493463 -.001201)"><path d="m198.95937 10.52814-128.27561 124.09656c-6.406647 5.44012-10.498248 11.82836-10.498248 20.96888 0 9.09909 4.096204 15.51034 10.498248 20.99189l128.27561 124.05514c.82384.84225 1.62007 1.17823 2.29663 1.17823 1.21505 0 2.05271-1.10459 2.01589-2.40249-.0368-.76401-.3682-1.64309-1.12761-2.4025-30.1094-37.40892-52.01718-80.3132-52.01718-140.96923 0-60.692849 21.90778-104.439383 52.01718-141.875922.75941-.750203 1.09079-1.615469 1.12761-2.39789.0414-1.325513-.80084-2.3978897-2.01589-2.3978897-.67656-.013807-1.47279.3175709-2.29663 1.1552217" fill="#ed1c24"/><path d="m297.57662.02068731c-50.22682 0-69.85178 71.17728969-69.85178 156.01473269 0 84.86505 19.62496 155.09423 69.85178 155.09423 30.14161 0 55.83263-17.6505 55.91548-32.1575.0138-3.17571-1.21045-6.21795-3.87529-8.87357-14.28608-13.80283-19.87349-27.59645-19.91491-39.77-.0921-23.2379 20.06679-40.54781 38.65159-40.54781 25.54834 0 40.61685 20.0806 40.61685 46.08459 0 24.64166-10.49825 45.1641-21.92159 61.59954-.45104.67196-.65355 1.42216-.65355 2.08032.009 1.28869.76861 2.34726 1.90542 2.34726.69037 0 1.50041-.3682 2.38408-1.25648l128.30783-124.05513c6.40664-5.47695 10.49824-11.8928 10.49824-20.99189 0-9.13592-4.0962-15.52876-10.49824-20.96888l-128.30783-124.096563c-.87907-.8790726-1.6891-1.2518731-2.38408-1.2518731-1.14601 0-1.89622 1.0677741-1.90542 2.3610701 0 .662757.20251 1.403755.65355 2.084922 11.41874 16.412429 21.92159 36.957881 21.92159 61.581127 0 25.985577-15.06851 46.084587-40.61685 46.084587-18.5848 0-38.74364-17.2961-38.65159-40.538603.0414-12.173549 5.62883-25.980977 19.91491-39.769995 2.66484-2.669436 3.88909-5.684057 3.87529-8.864368-.08285-14.530017-25.77387-32.18971669-55.91548-32.18971669" fill="#005bab"/></g></svg>