<?xml version="1.0" standalone="no"?>
<!DOCTYPE svg PUBLIC "-//W3C//DTD SVG 20010904//EN"
 "http://www.w3.org/TR/2001/REC-SVG-20010904/DTD/svg10.dtd">
<svg version="1.0" xmlns="http://www.w3.org/2000/svg"
 width="624.000000pt" height="400.000000pt" viewBox="0 0 624.000000 400.000000"
 preserveAspectRatio="xMidYMid meet">

<g transform="translate(0.000000,400.000000) scale(0.100000,-0.100000)"
fill="#000000" stroke="none">
<path d="M2577 2223 c-4 -3 -7 -21 -7 -40 0 -33 1 -33 45 -33 l45 0 0 40 c0
40 0 40 -38 40 -21 0 -42 -3 -45 -7z"/>
<path d="M3813 2219 c-46 -13 -83 -62 -83 -109 0 -49 33 -90 92 -114 84 -34
93 -41 96 -69 3 -22 -2 -29 -24 -37 -32 -12 -79 2 -93 29 -9 14 -13 14 -45 -2
-20 -9 -36 -21 -36 -25 0 -17 42 -62 70 -77 37 -19 123 -19 160 0 66 34 91
114 53 172 -16 24 -122 83 -150 83 -7 0 -18 10 -24 22 -10 18 -8 24 11 40 25
21 53 17 85 -13 20 -18 21 -17 53 3 30 19 32 22 19 42 -17 27 -94 66 -127 65
-14 0 -39 -5 -57 -10z"/>
<path d="M2260 2015 l0 -205 125 0 125 0 0 40 0 39 -77 3 -78 3 -3 163 -2 162
-45 0 -45 0 0 -205z"/>
<path d="M3309 2141 l40 -78 -25 -13 c-14 -8 -34 -29 -46 -48 -27 -43 -21
-112 13 -149 61 -66 182 -72 237 -13 l20 22 11 -21 c16 -29 48 -43 82 -36 26
6 29 10 29 46 0 37 -2 40 -27 37 -27 -3 -28 -1 -31 45 -3 42 0 49 17 54 16 4
21 13 21 39 l0 34 -70 0 -70 0 0 -68 c0 -82 -12 -101 -66 -109 -57 -7 -84 9
-84 51 0 40 16 55 64 63 41 7 41 12 0 96 l-24 47 75 0 75 0 0 40 0 40 -140 0
-140 0 39 -79z"/>
<path d="M3047 2184 c-4 -4 -7 -22 -7 -41 0 -26 -4 -33 -20 -33 -16 0 -20 -7
-20 -35 0 -28 4 -35 19 -35 17 0 19 -10 23 -94 3 -74 8 -99 22 -115 21 -23 74
-36 111 -27 22 6 25 12 25 47 0 24 -4 38 -10 34 -6 -3 -19 -3 -30 0 -18 6 -20
15 -20 81 l0 74 30 0 c28 0 30 3 30 35 0 32 -2 35 -29 35 -27 0 -30 3 -33 38
-3 36 -5 37 -43 40 -23 2 -44 0 -48 -4z"/>
<path d="M2770 2103 c-26 -13 -37 -27 -44 -55 -12 -48 7 -78 71 -108 66 -31
76 -39 62 -56 -16 -19 -39 -17 -63 5 -19 18 -24 18 -54 6 -29 -13 -32 -17 -22
-35 37 -70 169 -78 220 -13 42 54 18 111 -57 139 -27 9 -55 23 -63 31 -24 22
8 37 37 18 22 -15 78 -11 88 6 3 4 -7 22 -23 39 -36 41 -99 50 -152 23z"/>
<path d="M4146 2097 c-95 -54 -103 -205 -13 -271 21 -16 42 -20 80 -19 29 0
80 1 115 2 l62 0 0 150 c0 166 1 165 -69 150 -18 -4 -45 -3 -58 2 -39 15 -75
10 -117 -14z m128 -78 c20 -16 26 -29 26 -59 0 -63 -56 -98 -105 -66 -47 31
-44 108 5 133 34 17 43 16 74 -8z"/>
<path d="M4931 2098 c-65 -34 -86 -67 -86 -138 0 -63 16 -95 69 -134 37 -28
149 -30 190 -3 l28 19 -22 23 c-19 20 -29 23 -74 18 -56 -6 -96 8 -96 32 0 12
20 15 106 15 l107 0 -5 51 c-8 80 -53 125 -137 136 -25 3 -49 -3 -80 -19z
m111 -75 c29 -26 21 -33 -42 -33 -64 0 -74 9 -38 34 29 21 57 20 80 -1z"/>
<path d="M2570 1960 l0 -150 45 0 45 0 0 150 0 150 -45 0 -45 0 0 -150z"/>
<path d="M4450 2101 c0 -4 28 -71 63 -147 l63 -139 45 -3 44 -3 32 73 c17 40
47 108 67 151 l35 77 -47 0 -48 0 -38 -90 c-21 -49 -41 -90 -46 -90 -4 0 -24
41 -46 90 l-38 90 -43 0 c-24 0 -43 -4 -43 -9z"/>
</g>
</svg>
